<svg xmlns="http://www.w3.org/2000/svg" width="47" height="52">
    <path fill="#020E35" fill-rule="evenodd" d="M44.713.004H25.162c-1.256 0-2.277 1.005-2.277 2.228 0 1.224 1.021 2.228 2.277 2.228h17.264v43.089H25.162c-1.256 0-2.277.995-2.277 2.219 0 1.223 1.021 2.228 2.277 2.228h19.551c1.255 0 2.286-1.005 2.286-2.228V2.232c0-1.223-1.031-2.228-2.286-2.228z"/>
    <path fill="#4D7BF3" fill-rule="evenodd" d="M.663 24.411l13.449-13.103c.891-.867 2.344-.867 3.243 0 .9.868.881 2.274 0 3.15l-9.559 9.314h24.761c1.256 0 2.287 1.004 2.287 2.228 0 1.223-1.031 2.219-2.287 2.219H7.796l9.559 9.313a2.207 2.207 0 0 1 0 3.15 2.301 2.301 0 0 1-1.612.658 2.27 2.27 0 0 1-1.612-.658L.673 27.58c-.9-.886-.9-2.301-.01-3.169z"/>
</svg>
