<svg xmlns="http://www.w3.org/2000/svg" width="172" height="172">
    <path fill="#C7D7FF" fill-rule="evenodd" d="M4.468 101.621l-1.117 16.757 2.234 6.703 4.469 2.234h11.171l4.468-14.523-2.234-10.054-4.468-6.702-5.586-1.117-8.937 6.702zM147.458 106.09l2.235-5.586 6.702-4.468 6.703 1.117 7.82 5.585-1.118 11.171-1.117 7.82-4.468 3.352-5.586 2.234h-4.468l-4.468-4.469-3.352-6.702 1.117-10.054zM44.684 75.928l11.171-4.469 11.171-4.468 13.406-2.234h17.874l12.288 2.234 10.054 6.702 2.234 6.703s-9.216 2.793-11.171 3.352c-1.955.558-13.405 6.702-13.405 6.702l-8.937 3.351h-5.586l-11.171-4.468-13.405-5.585-14.523-7.82z"/>
    <path fill="#020E36" fill-rule="evenodd" d="M14.036 151.204c25.698 0 48.366 5.827 69.868 20.162a3.712 3.712 0 0 0 2.098.642 3.71 3.71 0 0 0 2.098-.642c21.561-14.335 44.17-20.162 69.868-20.162a3.78 3.78 0 0 0 3.788-3.787v-16.958l2.331-1.107c4.836-2.389 7.925-7.283 7.925-12.644v-10.257c0-5.361-3.089-10.255-7.925-12.645l-2.331-1.107V75.742a3.78 3.78 0 0 0-3.788-3.788c-9.44 0-18.88.758-28.145 2.448l-1.981.349-1.457-1.34c-4.021-3.613-8.624-6.526-13.636-8.507l-5.594-2.215 4.079-4.37c5.944-6.41 9.265-14.743 9.265-23.484 0-19.055-15.325-34.847-34.497-34.847-19.171 0-34.497 15.792-34.497 34.847 0 8.741 3.322 17.074 9.265 23.484l4.079 4.37-5.594 2.215c-5.011 1.981-9.615 4.894-13.636 8.507l-1.456 1.34-1.981-.349c-9.266-1.748-18.706-2.448-28.146-2.448a3.78 3.78 0 0 0-3.788 3.788v16.957l-2.33 1.107c-4.837 2.39-7.926 7.284-7.926 12.645v10.257c0 5.361 3.089 10.255 7.926 12.644l2.33 1.107v16.958a3.78 3.78 0 0 0 3.788 3.787zm135.949-44.112a8.02 8.02 0 0 1 8.042-8.041c4.428 0 8.041 3.613 8.041 8.041v8.974c0 4.429-3.613 8.042-8.041 8.042a8.02 8.02 0 0 1-8.042-8.042v-8.974zm-143.991 0c0-4.428 3.613-8.041 8.042-8.041s8.042 3.613 8.042 8.041v8.974c0 4.429-3.613 8.042-8.042 8.042s-8.042-3.613-8.042-8.042v-8.974zM59.08 34.835c0-14.86 11.946-27.213 26.922-27.213s26.922 12.353 26.922 27.213c0 14.859-12.062 26.922-26.922 26.922-14.859 0-26.922-12.063-26.922-26.922zm2.623 37.294a36.592 36.592 0 0 1 14.043-2.797h20.512c4.778 0 9.557.932 14.044 2.797l9.789 3.962-9.964 3.614c-7.692 2.796-15.034 6.409-21.969 10.663l-2.156 1.282-2.156-1.282c-6.934-4.254-14.277-7.867-21.968-10.663l-9.907-3.614 9.732-3.962zm-41.548 57.223c4.836-2.389 7.925-7.283 7.925-12.644v-10.257c0-5.361-3.089-10.255-7.925-12.645l-2.331-1.107V79.53l4.254.233c21.269.99 40.033 6.06 58.214 17.306l1.923 1.166v62.876l-6.003-3.147c-17.132-9.032-35.138-13.344-54.484-14.219l-3.904-.174v-13.112l2.331-1.107zm69.635 31.759V98.293l1.923-1.224c18.181-11.246 36.944-16.316 58.214-17.306l4.254-.233v13.169l-2.331 1.107c-4.837 2.39-7.925 7.284-7.925 12.645v10.257c0 5.361 3.088 10.255 7.925 12.644l2.331 1.107v13.112l-3.905.174c-19.346.875-37.352 5.187-54.484 14.219l-6.002 3.147z"/>
</svg>