<svg xmlns="http://www.w3.org/2000/svg" width="62" height="93">
    <path fill="#020E35" fill-rule="evenodd" d="M-.002 92.999h4.11V55.735c0-.726.589-1.302 1.304-1.302h14.523l-.652 1.127a6.37 6.37 0 0 1-5.476 3.143H8.77a2.054 2.054 0 1 0 0 4.107c6.265 0 11.365 5.096 11.365 11.369v1.678c0 1.127.927 2.054 2.055 2.054h9.185l-.2.901a5.765 5.765 0 0 0-.126 1.24c0 3.043 2.231 5.672 5.238 6.161l.627.1v6.686h4.11v-6.711h7.18c3.446 0 6.253-2.793 6.253-6.236a5.65 5.65 0 0 0-.188-1.453l-.176-.726.714-.188c2.745-.713 4.687-3.193 4.687-6.023 0-.813-.163-1.602-.476-2.341l-.238-.563.501-.351a6.198 6.198 0 0 0 1.466-8.865l-.338-.464.338-.451A6.169 6.169 0 0 0 62 54.896c0-3.443-2.794-6.248-6.24-6.248h-2.983V4.359c0-.726.138-3.394-.388-3.944-.526-.539-3.007-.401-3.697-.389-13.733.301-27.454.126-41.175 0-.376 0-2.068-.05-2.331.251-.301.313-.163 2.529-.15 2.955v47.069l-.614.112a5.423 5.423 0 0 0-4.424 5.322v37.264zm44.847-35.962a2.149 2.149 0 0 1-2.142-2.141c0-1.189.965-2.141 2.142-2.141H55.76a2.14 2.14 0 1 1 0 4.282H44.845zM19.108 61.37a10.459 10.459 0 0 0 5.137-8.991 2.047 2.047 0 0 0-2.055-2.053H9.146V4.121h39.521v44.527h-3.822c-3.445 0-6.252 2.805-6.252 6.248a6.18 6.18 0 0 0 1.265 3.731l.339.451-.339.464a6.18 6.18 0 0 0-1.265 3.731c0 .814.163 1.603.476 2.342l.238.563-.501.351a6.212 6.212 0 0 0-2.719 5.133c0 .414.037.827.125 1.228l.188.914H24.258l-.05-.701a15.436 15.436 0 0 0-5.213-10.531l-.777-.676.89-.526zm38.794 1.903a2.148 2.148 0 0 1-2.142 2.141H44.845a2.149 2.149 0 0 1-2.142-2.141c0-1.177.965-2.141 2.142-2.141H55.76c1.178 0 2.142.964 2.142 2.141zm-4.661 10.531H42.327a2.15 2.15 0 0 1-2.143-2.142 2.15 2.15 0 0 1 2.143-2.141h10.914a2.15 2.15 0 0 1 2.143 2.141 2.15 2.15 0 0 1-2.143 2.142zm-5.037 8.377H37.289a2.128 2.128 0 0 1-2.13-2.129 2.13 2.13 0 0 1 2.13-2.141h10.915a2.14 2.14 0 0 1 2.142 2.141 2.138 2.138 0 0 1-2.142 2.129zm-21.353-21.8v4.107h4.111v-4.107h-4.111z" opacity=".902"/>
    <path fill="#4D7BF3" fill-rule="evenodd" d="M42.522 36.124V18.451c0-2.736-2.202-4.966-4.93-4.966H20.05c-2.716 0-4.93 2.23-4.93 4.966v17.673c0 2.736 2.214 4.966 4.93 4.966h17.542c2.728 0 4.93-2.23 4.93-4.966zm-23.39 0V18.451c0-.505.416-.924.918-.924h17.542a.92.92 0 0 1 .918.924v17.673a.92.92 0 0 1-.918.924H20.05a.928.928 0 0 1-.918-.924zm14.619-12.706v-4.042h-4.93a2.014 2.014 0 0 0-2.006 2.021v3.869h-2.924v4.043h2.924v5.89h4.012v-5.89h2.924v-4.043h-2.924v-1.848h2.924z"/>
</svg>
