<svg xmlns="http://www.w3.org/2000/svg" width="67" height="67">
    <path fill="#4D7BF3" fill-rule="evenodd" d="M0 0h67v67H0V0z"/>
    <path fill="#FFF" fill-rule="evenodd" d="M53.945 31.867L38.691 16.692c-.436-.433-1.016-.671-1.635-.671s-1.199.238-1.635.671l-1.385 1.378c-.435.433-.675 1.01-.675 1.626 0 .616.24 1.213.675 1.645l8.899 8.872H14.662c-1.274 0-2.282.993-2.282 2.262v1.948c0 1.268 1.008 2.361 2.282 2.361h28.374l-8.999 8.922c-.436.433-.675.995-.675 1.611 0 .615.239 1.185.675 1.618l1.384 1.374c.436.433 1.016.669 1.635.669s1.2-.239 1.635-.672l15.255-15.175c.436-.434.676-1.014.674-1.631.002-.619-.238-1.199-.675-1.633z"/>
</svg>
