<svg xmlns="http://www.w3.org/2000/svg" width="54" height="57">
    <path fill="#FFF" fill-rule="evenodd" d="M53.152 51.917L39.846 37.808a23.21 23.21 0 0 0 5.296-14.794C45.142 10.324 35.015 0 22.568 0 10.121 0-.005 10.324-.005 23.014c0 12.689 10.126 23.013 22.573 23.013 4.673 0 9.126-1.437 12.933-4.165l13.407 14.216a2.895 2.895 0 0 0 2.122.921c.765 0 1.49-.297 2.041-.837a3.047 3.047 0 0 0 .081-4.245zM22.568 6.004c9.2 0 16.685 7.63 16.685 17.01 0 9.379-7.485 17.009-16.685 17.009S5.883 32.393 5.883 23.014c0-9.38 7.485-17.01 16.685-17.01z"/>
</svg>
